<?xml version="1.0" standalone="no"?>
<!DOCTYPE svg PUBLIC "-//W3C//DTD SVG 20010904//EN"
 "http://www.w3.org/TR/2001/REC-SVG-20010904/DTD/svg10.dtd">
<svg version="1.0" xmlns="http://www.w3.org/2000/svg"
 width="540.000000pt" height="540.000000pt" viewBox="0 0 540.000000 540.000000"
 preserveAspectRatio="xMidYMid meet">
<metadata>
Created by potrace 1.14, written by Peter Selinger 2001-2017
</metadata>
<g transform="translate(0.000000,540.000000) scale(0.100000,-0.100000)"
fill="#000000" stroke="none">
<path d="M1800 4200 l0 -300 -300 0 -300 0 0 -300 0 -300 300 0 300 0 0 300 0
300 300 0 300 0 0 -300 0 -300 300 0 300 0 0 -300 0 -300 -1200 0 -1200 0 0
-300 0 -300 300 0 300 0 0 -300 0 -300 300 0 300 0 0 -300 0 -300 900 0 900 0
0 300 0 300 300 0 300 0 0 300 0 300 300 0 300 0 0 300 0 300 -600 0 -600 0 0
300 0 300 300 0 300 0 0 300 0 300 -300 0 -300 0 0 300 0 300 -900 0 -900 0 0
-300z"/>
</g>
</svg>
